# xmcd CD database file
#
# Track frame offsets:
#	150
#	17957
#	29707
#	52330
#	69055
#	83847
#	97235
#	112102
#	128387
#	142117
#	160092
#	170072
#	182545
#
# Disc length: 2665 seconds
#
# Revision: 0
# Processed by: cddbd v1.5.2PL0 Copyright (c) Steve Scherf et al.
# Submitted via: CDex 1.51
#
DISCID=b80a670d
DTITLE=Razzberrie Ragtimers - Razzberrie Ragtimers
DYEAR=1900
DGENRE=Jazz
TTITLE0=Milneberg Joys
TTITLE1=Dill Pickles Rag (Alexander's Ragtime Band)
TTITLE2=Farewell to Storyville
TTITLE3=Charley Medley
TTITLE4=Limehouse Blues
TTITLE5=Red Rose Rag
TTITLE6=Sensation
TTITLE7=It's Tight Like That
TTITLE8=Temptation Rag
TTITLE9=Gimme A Pigfoot
TTITLE10=Nagasaki
TTITLE11='Tain't No Sin
TTITLE12=When My Dreamboat Come Home
EXTD=
EXTT0=
EXTT1=
EXTT2=
EXTT3=
EXTT4=
EXTT5=
EXTT6=
EXTT7=
EXTT8=
EXTT9=
EXTT10=
EXTT11=
EXTT12=
PLAYORDER=
